<svg width="1280" height="720" viewBox="0 0 1280 720" fill="none" xmlns="http://www.w3.org/2000/svg">
<g clip-path="url(#clip0_43_3)">
<rect width="1280" height="720" fill="white"/>
<rect width="1280" height="720" fill="#EBEBEB"/>
<g clip-path="url(#clip1_43_3)">
<rect width="1280" height="104" fill="#0D0C6B" fill-opacity="0.7"/>
<path d="M0 100C0 44.7715 44.7715 0 100 0V0V100H0V100Z" fill="white" fill-opacity="0.1"/>
<path opacity="0.5" d="M0 100H50C77.6142 100 100 122.386 100 150V150C100 177.614 77.6142 200 50 200H0V100Z" fill="black" fill-opacity="0.24"/>
<path d="M100 100V100C155.228 100 200 144.772 200 200V200H100V100Z" fill="black" fill-opacity="0.24"/>
<path d="M200 100H250C277.614 100 300 122.386 300 150V150C300 177.614 277.614 200 250 200V200C222.386 200 200 177.614 200 150V100Z" fill="white" fill-opacity="0.1"/>
<path d="M300 100H400V200V200C344.772 200 300 155.228 300 100V100Z" fill="black" fill-opacity="0.1"/>
<path d="M400 100H450C477.614 100 500 122.386 500 150V150C500 177.614 477.614 200 450 200V200C422.386 200 400 177.614 400 150V100Z" fill="white" fill-opacity="0.1"/>
<path d="M500 150C500 122.386 522.386 100 550 100V100C577.614 100 600 122.386 600 150V150C600 177.614 577.614 200 550 200V200C522.386 200 500 177.614 500 150V150Z" fill="white" fill-opacity="0.24"/>
<path d="M600 100H650C677.614 100 700 122.386 700 150V150C700 177.614 677.614 200 650 200V200C622.386 200 600 177.614 600 150V100Z" fill="black" fill-opacity="0.1"/>
<path d="M700 150C700 122.386 722.386 100 750 100V100C777.614 100 800 122.386 800 150V150C800 177.614 777.614 200 750 200V200C722.386 200 700 177.614 700 150V150Z" fill="white" fill-opacity="0.1"/>
<path d="M800 100H850C877.614 100 900 122.386 900 150V150C900 177.614 877.614 200 850 200V200C822.386 200 800 177.614 800 150V100Z" fill="black" fill-opacity="0.24"/>
<path d="M900 100V100C955.228 100 1000 144.772 1000 200V200H900V100Z" fill="white" fill-opacity="0.1"/>
<path d="M1000 150C1000 122.386 1022.39 100 1050 100H1100V150C1100 177.614 1077.61 200 1050 200V200C1022.39 200 1000 177.614 1000 150V150Z" fill="black" fill-opacity="0.1"/>
<path d="M1100 200C1100 144.772 1144.77 100 1200 100V100V200H1100V200Z" fill="white" fill-opacity="0.1"/>
<path d="M1200 100V100C1255.23 100 1300 144.772 1300 200V200H1200V100Z" fill="white" fill-opacity="0.1"/>
<path d="M100 0H200V0C200 55.2285 155.228 100 100 100V100V0Z" fill="white" fill-opacity="0.24"/>
<rect x="200" width="100" height="100" rx="50" fill="black" fill-opacity="0.1"/>
<path d="M400 0V50C400 77.6142 377.614 100 350 100V100C322.386 100 300 77.6142 300 50V0L400 0Z" fill="white" fill-opacity="0.1"/>
<path d="M400 100C400 44.7715 444.772 0 500 0V0V100H400V100Z" fill="black" fill-opacity="0.24"/>
<path d="M500 50C500 22.3858 522.386 0 550 0V0C577.614 0 600 22.3858 600 50V50C600 77.6142 577.614 100 550 100H500V50Z" fill="black" fill-opacity="0.1"/>
<path d="M600 0H700V50C700 77.6142 677.614 100 650 100V100C622.386 100 600 77.6142 600 50V0Z" fill="white" fill-opacity="0.24"/>
<path d="M700 0H800V100V100C744.772 100 700 55.2285 700 0V0Z" fill="black" fill-opacity="0.1"/>
<path d="M800 0H900V0C900 55.2285 855.228 100 800 100V100V0Z" fill="black" fill-opacity="0.1"/>
<path d="M900 50C900 22.3858 922.386 0 950 0V0C977.614 0 1000 22.3858 1000 50V100H900V50Z" fill="black" fill-opacity="0.24"/>
<path d="M1000 50C1000 22.3858 1022.39 0 1050 0H1100V50C1100 77.6142 1077.61 100 1050 100V100C1022.39 100 1000 77.6142 1000 50V50Z" fill="white" fill-opacity="0.24"/>
<path d="M1100 100C1100 44.7715 1144.77 0 1200 0V0V100H1100V100Z" fill="black" fill-opacity="0.1"/>
<rect x="1200" width="100" height="100" rx="50" fill="black" fill-opacity="0.24"/>
</g>
<g clip-path="url(#clip2_43_3)">
<rect width="1280" height="98" transform="translate(0 622)" fill="#0D0C6B" fill-opacity="0.7"/>
<path d="M0 722C0 666.772 44.7715 622 100 622V622V722H0V722Z" fill="white" fill-opacity="0.1"/>
<path d="M100 622H200V622C200 677.228 155.228 722 100 722V722V622Z" fill="white" fill-opacity="0.24"/>
<rect x="200" y="622" width="100" height="100" rx="50" fill="black" fill-opacity="0.1"/>
<path d="M400 622V672C400 699.614 377.614 722 350 722V722C322.386 722 300 699.614 300 672V622H400Z" fill="white" fill-opacity="0.1"/>
<path d="M400 722C400 666.772 444.772 622 500 622V622V722H400V722Z" fill="black" fill-opacity="0.24"/>
<path d="M500 672C500 644.386 522.386 622 550 622V622C577.614 622 600 644.386 600 672V672C600 699.614 577.614 722 550 722H500V672Z" fill="black" fill-opacity="0.1"/>
<path d="M600 622H700V672C700 699.614 677.614 722 650 722V722C622.386 722 600 699.614 600 672V622Z" fill="white" fill-opacity="0.24"/>
<path d="M700 622H800V722V722C744.772 722 700 677.228 700 622V622Z" fill="black" fill-opacity="0.1"/>
<path d="M800 622H900V622C900 677.228 855.228 722 800 722V722V622Z" fill="black" fill-opacity="0.1"/>
<path d="M900 672C900 644.386 922.386 622 950 622V622C977.614 622 1000 644.386 1000 672V722H900V672Z" fill="black" fill-opacity="0.24"/>
<path d="M1000 672C1000 644.386 1022.39 622 1050 622H1100V672C1100 699.614 1077.61 722 1050 722V722C1022.39 722 1000 699.614 1000 672V672Z" fill="white" fill-opacity="0.24"/>
<path d="M1100 722C1100 666.772 1144.77 622 1200 622V622V722H1100V722Z" fill="black" fill-opacity="0.1"/>
<rect x="1200" y="622" width="100" height="100" rx="50" fill="black" fill-opacity="0.24"/>
</g>
<path fill-rule="evenodd" clip-rule="evenodd" d="M1162.25 517L1168.08 513.88L1208.08 540.545V546.785L1168.08 573.455L1162.25 570.335V517ZM1169.75 524.005V563.325L1199.24 543.665L1169.75 524.005Z" fill="#0D0C6B"/>
<path d="M1203.38 544.622L1165.55 570.998L1166.22 517.309L1203.38 544.622Z" fill="#0D0C6B"/>
<path d="M85.4688 240L83.623 232.266H71.084L69.0918 240H55.4102L69.8828 197.988H85.5859L99.209 240H85.4688ZM77.5 207.129H77.207C77.168 207.598 77.0312 208.369 76.7969 209.443C76.5625 210.518 75.3809 215.127 73.252 223.271H81.2793L78.3496 211.846C77.9395 210.166 77.6562 208.594 77.5 207.129ZM126.641 240V223.623C126.641 221.768 126.358 220.439 125.792 219.639C125.245 218.818 124.346 218.408 123.096 218.408C122.022 218.408 121.182 218.828 120.577 219.668C119.971 220.508 119.669 221.582 119.669 222.891V240H107.188V210H119.669V214.688H119.786C120.782 212.969 122.12 211.641 123.8 210.703C125.479 209.746 127.305 209.268 129.278 209.268C135.841 209.268 139.122 213.408 139.122 221.689V240H126.641ZM165.588 240V235.43H165.47C163.478 238.965 160.431 240.732 156.33 240.732C153.498 240.732 151.281 239.893 149.679 238.213C148.078 236.533 147.277 234.287 147.277 231.475C147.277 225.576 150.9 222.158 158.146 221.221L165.588 220.254C165.588 219.277 165.148 218.477 164.269 217.852C163.39 217.227 162.209 216.914 160.724 216.914C157.365 216.914 153.82 217.871 150.089 219.785V211.67C151.711 210.967 153.742 210.391 156.183 209.941C158.625 209.492 160.714 209.268 162.453 209.268C167.55 209.268 171.242 210.361 173.527 212.549C175.832 214.717 176.984 218.35 176.984 223.447V240H165.588ZM158.205 229.805C158.205 230.625 158.459 231.299 158.966 231.826C159.494 232.354 160.236 232.617 161.193 232.617C162.502 232.617 163.556 232.129 164.357 231.152C165.177 230.176 165.588 228.926 165.588 227.402V226.26L161.369 226.846C159.259 227.197 158.205 228.184 158.205 229.805ZM163.742 205.254H154.923L163.683 195.85H174.171L163.742 205.254ZM186.838 240V195.586H199.319V240H186.838ZM222.767 201.914C222.767 203.672 222.122 205.098 220.833 206.191C219.564 207.285 217.884 207.832 215.794 207.832C213.763 207.832 212.093 207.266 210.784 206.133C209.495 205 208.851 203.594 208.851 201.914C208.851 200.195 209.476 198.809 210.726 197.754C211.995 196.68 213.685 196.143 215.794 196.143C217.884 196.143 219.564 196.68 220.833 197.754C222.122 198.809 222.767 200.195 222.767 201.914ZM209.554 240V210H222.034V240H209.554ZM256.645 230.039C256.645 233.438 255.346 236.074 252.748 237.949C250.17 239.805 246.566 240.732 241.938 240.732C240.59 240.732 238.92 240.596 236.928 240.322C234.955 240.049 233.344 239.717 232.094 239.326V230.566C235.785 232.207 238.871 233.027 241.352 233.027C243.793 233.027 245.014 232.393 245.014 231.123C245.014 230.596 244.73 230.166 244.164 229.834C243.598 229.482 242.113 228.906 239.711 228.105C237.055 227.266 235.121 226.152 233.91 224.766C232.699 223.379 232.094 221.572 232.094 219.346C232.094 216.24 233.324 213.789 235.785 211.992C238.266 210.176 241.742 209.268 246.215 209.268C248.832 209.268 251.605 209.648 254.535 210.41V218.818C253.305 218.291 251.957 217.852 250.492 217.5C249.027 217.148 247.797 216.973 246.801 216.973C245.98 216.973 245.326 217.109 244.838 217.383C244.35 217.656 244.105 218.037 244.105 218.525C244.105 219.092 244.369 219.551 244.896 219.902C245.424 220.254 246.479 220.674 248.061 221.162C251.127 222.061 253.324 223.213 254.652 224.619C255.98 226.025 256.645 227.832 256.645 230.039ZM276.225 228.545C276.44 229.834 277.182 230.85 278.452 231.592C279.721 232.314 281.401 232.676 283.491 232.676C286.401 232.676 289.155 232.119 291.753 231.006V238.916C288.725 240.127 285.054 240.732 280.737 240.732C275.503 240.732 271.43 239.395 268.52 236.719C265.61 234.043 264.155 230.361 264.155 225.674C264.155 222.451 264.79 219.609 266.059 217.148C267.348 214.688 269.243 212.764 271.743 211.377C274.262 209.971 277.036 209.268 280.063 209.268C283.169 209.268 285.825 209.873 288.032 211.084C290.239 212.295 291.909 213.994 293.042 216.182C294.194 218.369 294.77 220.928 294.77 223.857V228.545H276.225ZM283.725 222.012C283.725 218.555 282.485 216.826 280.005 216.826C278.97 216.826 278.1 217.305 277.397 218.262C276.694 219.199 276.284 220.449 276.167 222.012H283.725ZM338.004 207.891V215.449H350.485V225.352H338.004V240H325.348V197.988H351.686V207.891H338.004ZM374.079 201.914C374.079 203.672 373.435 205.098 372.146 206.191C370.876 207.285 369.196 207.832 367.107 207.832C365.075 207.832 363.405 207.266 362.097 206.133C360.808 205 360.163 203.594 360.163 201.914C360.163 200.195 360.788 198.809 362.038 197.754C363.308 196.68 364.997 196.143 367.107 196.143C369.196 196.143 370.876 196.68 372.146 197.754C373.435 198.809 374.079 200.195 374.079 201.914ZM360.866 240V210H373.347V240H360.866ZM403.035 240V223.623C403.035 221.768 402.752 220.439 402.186 219.639C401.639 218.818 400.74 218.408 399.49 218.408C398.416 218.408 397.576 218.828 396.971 219.668C396.365 220.508 396.062 221.582 396.062 222.891V240H383.582V210H396.062V214.688H396.18C397.176 212.969 398.514 211.641 400.193 210.703C401.873 209.746 403.699 209.268 405.672 209.268C412.234 209.268 415.516 213.408 415.516 221.689V240H403.035ZM441.981 240V235.43H441.864C439.872 238.965 436.825 240.732 432.723 240.732C429.891 240.732 427.675 239.893 426.073 238.213C424.471 236.533 423.671 234.287 423.671 231.475C423.671 225.576 427.294 222.158 434.54 221.221L441.981 220.254C441.981 219.277 441.542 218.477 440.663 217.852C439.784 217.227 438.602 216.914 437.118 216.914C433.759 216.914 430.214 217.871 426.483 219.785V211.67C428.104 210.967 430.136 210.391 432.577 209.941C435.018 209.492 437.108 209.268 438.846 209.268C443.944 209.268 447.636 210.361 449.921 212.549C452.225 214.717 453.378 218.35 453.378 223.447V240H441.981ZM434.598 229.805C434.598 230.625 434.852 231.299 435.36 231.826C435.888 232.354 436.63 232.617 437.587 232.617C438.895 232.617 439.95 232.129 440.751 231.152C441.571 230.176 441.981 228.926 441.981 227.402V226.26L437.763 226.846C435.653 227.197 434.598 228.184 434.598 229.805ZM482.685 240V223.623C482.685 221.768 482.402 220.439 481.836 219.639C481.289 218.818 480.39 218.408 479.14 218.408C478.066 218.408 477.226 218.828 476.621 219.668C476.015 220.508 475.712 221.582 475.712 222.891V240H463.232V210H475.712V214.688H475.83C476.826 212.969 478.164 211.641 479.843 210.703C481.523 209.746 483.349 209.268 485.322 209.268C491.884 209.268 495.166 213.408 495.166 221.689V240H482.685ZM529.717 239.15C528.916 239.619 527.657 240 525.938 240.293C524.219 240.586 522.237 240.732 519.991 240.732C516.827 240.732 513.995 240.098 511.495 238.828C509.014 237.539 507.09 235.742 505.723 233.438C504.356 231.133 503.672 228.545 503.672 225.674C503.672 222.236 504.395 219.297 505.84 216.855C507.305 214.395 509.385 212.52 512.08 211.23C514.776 209.922 517.901 209.268 521.455 209.268C523.409 209.268 525.157 209.395 526.7 209.648C528.262 209.902 529.268 210.195 529.717 210.527V220.254C529.092 219.766 528.194 219.336 527.022 218.965C525.85 218.594 524.766 218.408 523.77 218.408C521.329 218.408 519.473 218.994 518.204 220.166C516.954 221.318 516.329 222.949 516.329 225.059C516.329 227.129 516.944 228.74 518.174 229.893C519.424 231.025 521.133 231.592 523.301 231.592C525.625 231.592 527.764 231.035 529.717 229.922V239.15ZM549.65 228.545C549.864 229.834 550.607 230.85 551.876 231.592C553.146 232.314 554.825 232.676 556.915 232.676C559.825 232.676 562.579 232.119 565.177 231.006V238.916C562.15 240.127 558.478 240.732 554.161 240.732C548.927 240.732 544.855 239.395 541.945 236.719C539.034 234.043 537.579 230.361 537.579 225.674C537.579 222.451 538.214 219.609 539.484 217.148C540.773 214.688 542.667 212.764 545.167 211.377C547.687 209.971 550.46 209.268 553.487 209.268C556.593 209.268 559.249 209.873 561.456 211.084C563.663 212.295 565.333 213.994 566.466 216.182C567.618 218.369 568.195 220.928 568.195 223.857V228.545H549.65ZM557.15 222.012C557.15 218.555 555.909 216.826 553.429 216.826C552.394 216.826 551.525 217.305 550.821 218.262C550.118 219.199 549.708 220.449 549.591 222.012H557.15ZM589.943 201.914C589.943 203.672 589.299 205.098 588.01 206.191C586.74 207.285 585.061 207.832 582.971 207.832C580.939 207.832 579.27 207.266 577.961 206.133C576.672 205 576.027 203.594 576.027 201.914C576.027 200.195 576.652 198.809 577.902 197.754C579.172 196.68 580.861 196.143 582.971 196.143C585.061 196.143 586.74 196.68 588.01 197.754C589.299 198.809 589.943 200.195 589.943 201.914ZM576.73 240V210H589.211V240H576.73ZM622.005 220.693C621.536 220.479 620.901 220.283 620.1 220.107C619.3 219.932 618.636 219.844 618.108 219.844C613.987 219.844 611.927 222.227 611.927 226.992V240H599.446V210H611.927V215.273H612.044C612.805 213.379 613.889 211.943 615.296 210.967C616.702 209.971 618.343 209.473 620.218 209.473C620.901 209.473 621.497 209.59 622.005 209.824V220.693ZM646.478 240V235.43H646.361C644.369 238.965 641.322 240.732 637.22 240.732C634.388 240.732 632.172 239.893 630.57 238.213C628.968 236.533 628.168 234.287 628.168 231.475C628.168 225.576 631.791 222.158 639.037 221.221L646.478 220.254C646.478 219.277 646.039 218.477 645.16 217.852C644.281 217.227 643.099 216.914 641.615 216.914C638.255 216.914 634.711 217.871 630.98 219.785V211.67C632.601 210.967 634.632 210.391 637.074 209.941C639.515 209.492 641.605 209.268 643.343 209.268C648.441 209.268 652.132 210.361 654.418 212.549C656.722 214.717 657.875 218.35 657.875 223.447V240H646.478ZM639.095 229.805C639.095 230.625 639.349 231.299 639.857 231.826C640.384 232.354 641.127 232.617 642.084 232.617C643.392 232.617 644.447 232.129 645.248 231.152C646.068 230.176 646.478 228.926 646.478 227.402V226.26L642.259 226.846C640.15 227.197 639.095 228.184 639.095 229.805ZM699.38 228.545C699.595 229.834 700.337 230.85 701.607 231.592C702.876 232.314 704.556 232.676 706.646 232.676C709.556 232.676 712.31 232.119 714.907 231.006V238.916C711.88 240.127 708.208 240.732 703.892 240.732C698.657 240.732 694.585 239.395 691.675 236.719C688.765 234.043 687.31 230.361 687.31 225.674C687.31 222.451 687.945 219.609 689.214 217.148C690.503 214.688 692.398 212.764 694.898 211.377C697.417 209.971 700.191 209.268 703.218 209.268C706.323 209.268 708.98 209.873 711.187 211.084C713.394 212.295 715.064 213.994 716.196 216.182C717.349 218.369 717.925 220.928 717.925 223.857V228.545H699.38ZM706.88 222.012C706.88 218.555 705.64 216.826 703.159 216.826C702.124 216.826 701.255 217.305 700.552 218.262C699.849 219.199 699.439 220.449 699.321 222.012H706.88ZM748.503 240V197.988H761.159V230.098H775.632V240H748.503ZM817.39 224.473C817.39 229.531 815.857 233.506 812.791 236.396C809.744 239.287 805.476 240.732 799.988 240.732C794.539 240.732 790.291 239.326 787.244 236.514C784.216 233.682 782.703 229.785 782.703 224.824C782.703 221.641 783.416 218.877 784.841 216.533C786.267 214.189 788.298 212.393 790.935 211.143C793.572 209.893 796.609 209.268 800.047 209.268C803.601 209.268 806.677 209.922 809.275 211.23C811.892 212.539 813.894 214.355 815.281 216.68C816.687 219.004 817.39 221.602 817.39 224.473ZM804.734 224.531C804.734 220.449 803.172 218.408 800.047 218.408C796.922 218.408 795.359 220.547 795.359 224.824C795.359 229.336 796.941 231.592 800.105 231.592C803.191 231.592 804.734 229.238 804.734 224.531ZM858.768 235.811C858.768 241.572 856.952 246.055 853.319 249.258C849.705 252.48 844.422 254.092 837.469 254.092C835.594 254.092 833.778 253.945 832.02 253.652C830.262 253.359 829.002 253.027 828.241 252.656V242.871C829.491 243.652 830.955 244.277 832.635 244.746C834.315 245.215 835.809 245.449 837.118 245.449C839.911 245.449 842.147 244.775 843.827 243.428C845.506 242.08 846.346 240.293 846.346 238.066V236.221H846.229C845.33 237.588 844.09 238.682 842.508 239.502C840.946 240.322 839.266 240.732 837.469 240.732C833.602 240.732 830.545 239.395 828.299 236.719C826.053 234.023 824.93 230.312 824.93 225.586C824.93 222.344 825.516 219.482 826.688 217.002C827.86 214.521 829.491 212.617 831.58 211.289C833.67 209.941 835.975 209.268 838.495 209.268C841.952 209.268 844.53 210.547 846.229 213.105H846.346V210H858.768V235.811ZM846.551 224.15C846.551 222.393 846.151 220.996 845.35 219.961C844.569 218.926 843.524 218.408 842.215 218.408C840.809 218.408 839.686 219.033 838.846 220.283C838.006 221.533 837.586 223.203 837.586 225.293C837.586 227.227 837.938 228.76 838.641 229.893C839.344 231.025 840.457 231.592 841.981 231.592C843.407 231.592 844.52 231.016 845.321 229.863C846.141 228.691 846.551 227.129 846.551 225.176V224.15ZM869.003 240V210H881.484V240H869.003ZM876.796 205.254H867.978L876.737 195.85H887.226L876.796 205.254ZM916.094 230.039C916.094 233.438 914.795 236.074 912.197 237.949C909.619 239.805 906.016 240.732 901.387 240.732C900.039 240.732 898.369 240.596 896.377 240.322C894.404 240.049 892.793 239.717 891.543 239.326V230.566C895.234 232.207 898.32 233.027 900.801 233.027C903.242 233.027 904.463 232.393 904.463 231.123C904.463 230.596 904.18 230.166 903.613 229.834C903.047 229.482 901.562 228.906 899.16 228.105C896.504 227.266 894.57 226.152 893.359 224.766C892.148 223.379 891.543 221.572 891.543 219.346C891.543 216.24 892.773 213.789 895.234 211.992C897.715 210.176 901.191 209.268 905.664 209.268C908.281 209.268 911.055 209.648 913.984 210.41V218.818C912.754 218.291 911.406 217.852 909.941 217.5C908.477 217.148 907.246 216.973 906.25 216.973C905.43 216.973 904.775 217.109 904.287 217.383C903.799 217.656 903.555 218.037 903.555 218.525C903.555 219.092 903.818 219.551 904.346 219.902C904.873 220.254 905.928 220.674 907.51 221.162C910.576 222.061 912.773 223.213 914.102 224.619C915.43 226.025 916.094 227.832 916.094 230.039ZM946.046 239.59C945.479 239.863 944.552 240.117 943.263 240.352C941.973 240.605 940.421 240.732 938.604 240.732C935.128 240.732 932.403 239.775 930.43 237.861C928.477 235.947 927.501 233.223 927.501 229.688V218.643H922.784V210H927.501V204.111L939.805 200.713V210H946.046V218.643H939.805V227.637C939.805 230.273 940.85 231.592 942.94 231.592C943.917 231.592 944.952 231.377 946.046 230.947V239.59ZM967.355 201.914C967.355 203.672 966.711 205.098 965.422 206.191C964.152 207.285 962.472 207.832 960.382 207.832C958.351 207.832 956.681 207.266 955.373 206.133C954.084 205 953.439 203.594 953.439 201.914C953.439 200.195 954.064 198.809 955.314 197.754C956.584 196.68 958.273 196.143 960.382 196.143C962.472 196.143 964.152 196.68 965.422 197.754C966.711 198.809 967.355 200.195 967.355 201.914ZM954.142 240V210H966.623V240H954.142ZM1001.58 239.15C1000.78 239.619 999.524 240 997.805 240.293C996.086 240.586 994.104 240.732 991.858 240.732C988.694 240.732 985.862 240.098 983.362 238.828C980.881 237.539 978.957 235.742 977.59 233.438C976.223 231.133 975.539 228.545 975.539 225.674C975.539 222.236 976.262 219.297 977.707 216.855C979.172 214.395 981.252 212.52 983.948 211.23C986.643 209.922 989.768 209.268 993.323 209.268C995.276 209.268 997.024 209.395 998.567 209.648C1000.13 209.902 1001.14 210.195 1001.58 210.527V220.254C1000.96 219.766 1000.06 219.336 998.889 218.965C997.717 218.594 996.633 218.408 995.637 218.408C993.196 218.408 991.34 218.994 990.071 220.166C988.821 221.318 988.196 222.949 988.196 225.059C988.196 227.129 988.811 228.74 990.041 229.893C991.291 231.025 993 231.592 995.168 231.592C997.493 231.592 999.631 231.035 1001.58 229.922V239.15ZM1027.41 240V235.43H1027.29C1025.3 238.965 1022.25 240.732 1018.15 240.732C1015.32 240.732 1013.1 239.893 1011.5 238.213C1009.9 236.533 1009.09 234.287 1009.09 231.475C1009.09 225.576 1012.72 222.158 1019.96 221.221L1027.41 220.254C1027.41 219.277 1026.97 218.477 1026.09 217.852C1025.21 217.227 1024.03 216.914 1022.54 216.914C1019.18 216.914 1015.64 217.871 1011.91 219.785V211.67C1013.53 210.967 1015.56 210.391 1018 209.941C1020.44 209.492 1022.53 209.268 1024.27 209.268C1029.37 209.268 1033.06 210.361 1035.34 212.549C1037.65 214.717 1038.8 218.35 1038.8 223.447V240H1027.41ZM1020.02 229.805C1020.02 230.625 1020.28 231.299 1020.78 231.826C1021.31 232.354 1022.05 232.617 1023.01 232.617C1024.32 232.617 1025.37 232.129 1026.17 231.152C1027 230.176 1027.41 228.926 1027.41 227.402V226.26L1023.19 226.846C1021.08 227.197 1020.02 228.184 1020.02 229.805ZM1089.59 240V236.514H1089.48C1088.48 237.822 1087.18 238.857 1085.58 239.619C1083.98 240.361 1082.4 240.732 1080.83 240.732C1078.28 240.732 1076.02 240.107 1074.07 238.857C1072.11 237.588 1070.65 235.82 1069.67 233.555C1068.72 231.289 1068.24 228.613 1068.24 225.527C1068.24 222.344 1068.81 219.521 1069.97 217.061C1071.12 214.6 1072.74 212.686 1074.83 211.318C1076.92 209.951 1079.26 209.268 1081.86 209.268C1083.09 209.268 1084.22 209.443 1085.26 209.795C1086.31 210.146 1087.22 210.625 1087.98 211.23C1088.76 211.816 1089.26 212.402 1089.48 212.988H1089.59V195.586H1102.08V240H1089.59ZM1089.86 224.092C1089.86 222.295 1089.46 220.898 1088.66 219.902C1087.88 218.906 1086.81 218.408 1085.46 218.408C1084.12 218.408 1083.01 219.033 1082.15 220.283C1081.31 221.514 1080.89 223.164 1080.89 225.234C1080.89 229.473 1082.36 231.592 1085.29 231.592C1086.67 231.592 1087.78 231.025 1088.6 229.893C1089.44 228.74 1089.86 227.07 1089.86 224.883V224.092ZM1123.06 228.545C1123.28 229.834 1124.02 230.85 1125.29 231.592C1126.56 232.314 1128.24 232.676 1130.33 232.676C1133.24 232.676 1135.99 232.119 1138.59 231.006V238.916C1135.56 240.127 1131.89 240.732 1127.57 240.732C1122.34 240.732 1118.27 239.395 1115.36 236.719C1112.45 234.043 1110.99 230.361 1110.99 225.674C1110.99 222.451 1111.63 219.609 1112.9 217.148C1114.19 214.688 1116.08 212.764 1118.58 211.377C1121.1 209.971 1123.87 209.268 1126.9 209.268C1130.01 209.268 1132.66 209.873 1134.87 211.084C1137.08 212.295 1138.75 213.994 1139.88 216.182C1141.03 218.369 1141.61 220.928 1141.61 223.857V228.545H1123.06ZM1130.56 222.012C1130.56 218.555 1129.32 216.826 1126.84 216.826C1125.81 216.826 1124.94 217.305 1124.23 218.262C1123.53 219.199 1123.12 220.449 1123 222.012H1130.56ZM77.0898 321V316.371H76.9727C75.9375 317.797 75 318.842 74.1602 319.506C73.3398 320.17 72.4023 320.707 71.3477 321.117C70.3125 321.527 69.1016 321.732 67.7148 321.732C64.4336 321.732 61.9336 320.668 60.2148 318.539C58.4961 316.41 57.6367 313.266 57.6367 309.105V291H70.1172V308.168C70.1172 311.117 71.2207 312.592 73.4277 312.592C74.6387 312.592 75.5469 312.191 76.1523 311.391C76.7773 310.59 77.0898 309.457 77.0898 307.992V291H89.5703V321H77.0898ZM138.653 321V303.715C138.653 302.27 138.389 301.195 137.862 300.492C137.354 299.77 136.514 299.408 135.343 299.408C134.19 299.408 133.292 299.848 132.647 300.727C132.003 301.586 131.68 302.787 131.68 304.33V321H119.2V304.008C119.2 300.941 118.155 299.408 116.065 299.408C114.796 299.408 113.839 299.857 113.194 300.756C112.55 301.635 112.227 302.904 112.227 304.564V321H99.7469V291H112.227V295.746H112.345C112.813 294.906 113.555 294.057 114.571 293.197C115.606 292.318 116.768 291.615 118.057 291.088C119.346 290.541 120.743 290.268 122.247 290.268C124.376 290.268 126.163 290.688 127.608 291.527C129.073 292.367 130.294 293.695 131.27 295.512C132.325 293.832 133.731 292.543 135.489 291.645C137.247 290.727 139.2 290.268 141.348 290.268C144.493 290.268 146.905 291.293 148.585 293.344C150.264 295.395 151.104 298.354 151.104 302.221V321H138.653ZM192.61 309.545C192.825 310.834 193.567 311.85 194.836 312.592C196.106 313.314 197.786 313.676 199.875 313.676C202.786 313.676 205.539 313.119 208.137 312.006V319.916C205.11 321.127 201.438 321.732 197.121 321.732C191.887 321.732 187.815 320.395 184.905 317.719C181.995 315.043 180.539 311.361 180.539 306.674C180.539 303.451 181.174 300.609 182.444 298.148C183.733 295.688 185.627 293.764 188.127 292.377C190.647 290.971 193.42 290.268 196.448 290.268C199.553 290.268 202.209 290.873 204.416 292.084C206.623 293.295 208.293 294.994 209.426 297.182C210.579 299.369 211.155 301.928 211.155 304.857V309.545H192.61ZM200.11 303.012C200.11 299.555 198.87 297.826 196.389 297.826C195.354 297.826 194.485 298.305 193.782 299.262C193.079 300.199 192.668 301.449 192.551 303.012H200.11ZM220.892 309.486V301.078H236.917V309.486H220.892ZM273.051 320.15C272.25 320.619 270.99 321 269.271 321.293C267.553 321.586 265.57 321.732 263.324 321.732C260.16 321.732 257.328 321.098 254.828 319.828C252.348 318.539 250.424 316.742 249.057 314.438C247.689 312.133 247.006 309.545 247.006 306.674C247.006 303.236 247.729 300.297 249.174 297.855C250.639 295.395 252.719 293.52 255.414 292.23C258.109 290.922 261.234 290.268 264.789 290.268C266.742 290.268 268.49 290.395 270.033 290.648C271.596 290.902 272.602 291.195 273.051 291.527V301.254C272.426 300.766 271.527 300.336 270.355 299.965C269.184 299.594 268.1 299.408 267.104 299.408C264.662 299.408 262.807 299.994 261.537 301.166C260.287 302.318 259.662 303.949 259.662 306.059C259.662 308.129 260.277 309.74 261.508 310.893C262.758 312.025 264.467 312.592 266.635 312.592C268.959 312.592 271.098 312.035 273.051 310.922V320.15ZM315.6 305.473C315.6 310.531 314.067 314.506 311.001 317.396C307.954 320.287 303.686 321.732 298.198 321.732C292.749 321.732 288.501 320.326 285.454 317.514C282.427 314.682 280.913 310.785 280.913 305.824C280.913 302.641 281.626 299.877 283.052 297.533C284.477 295.189 286.509 293.393 289.145 292.143C291.782 290.893 294.819 290.268 298.257 290.268C301.811 290.268 304.887 290.922 307.485 292.23C310.102 293.539 312.104 295.355 313.491 297.68C314.897 300.004 315.6 302.602 315.6 305.473ZM302.944 305.531C302.944 301.449 301.382 299.408 298.257 299.408C295.132 299.408 293.569 301.547 293.569 305.824C293.569 310.336 295.151 312.592 298.315 312.592C301.401 312.592 302.944 310.238 302.944 305.531ZM363.365 321V303.715C363.365 302.27 363.101 301.195 362.574 300.492C362.066 299.77 361.226 299.408 360.054 299.408C358.902 299.408 358.004 299.848 357.359 300.727C356.714 301.586 356.392 302.787 356.392 304.33V321H343.912V304.008C343.912 300.941 342.867 299.408 340.777 299.408C339.507 299.408 338.55 299.857 337.906 300.756C337.261 301.635 336.939 302.904 336.939 304.564V321H324.459V291H336.939V295.746H337.056C337.525 294.906 338.267 294.057 339.283 293.197C340.318 292.318 341.48 291.615 342.769 291.088C344.058 290.541 345.455 290.268 346.959 290.268C349.087 290.268 350.875 290.688 352.32 291.527C353.785 292.367 355.005 293.695 355.982 295.512C357.037 293.832 358.443 292.543 360.201 291.645C361.959 290.727 363.912 290.268 366.06 290.268C369.205 290.268 371.617 291.293 373.296 293.344C374.976 295.395 375.816 298.354 375.816 302.221V321H363.365ZM424.577 321V303.715C424.577 302.27 424.313 301.195 423.786 300.492C423.278 299.77 422.438 299.408 421.266 299.408C420.114 299.408 419.215 299.848 418.571 300.727C417.926 301.586 417.604 302.787 417.604 304.33V321H405.123V304.008C405.123 300.941 404.079 299.408 401.989 299.408C400.719 299.408 399.762 299.857 399.118 300.756C398.473 301.635 398.151 302.904 398.151 304.564V321H385.67V291H398.151V295.746H398.268C398.737 294.906 399.479 294.057 400.495 293.197C401.53 292.318 402.692 291.615 403.981 291.088C405.27 290.541 406.666 290.268 408.17 290.268C410.299 290.268 412.086 290.688 413.532 291.527C414.996 292.367 416.217 293.695 417.194 295.512C418.248 293.832 419.655 292.543 421.413 291.645C423.17 290.727 425.123 290.268 427.272 290.268C430.416 290.268 432.829 291.293 434.508 293.344C436.188 295.395 437.028 298.354 437.028 302.221V321H424.577ZM457.634 309.545C457.849 310.834 458.591 311.85 459.861 312.592C461.13 313.314 462.81 313.676 464.9 313.676C467.81 313.676 470.564 313.119 473.161 312.006V319.916C470.134 321.127 466.462 321.732 462.146 321.732C456.911 321.732 452.839 320.395 449.929 317.719C447.019 315.043 445.564 311.361 445.564 306.674C445.564 303.451 446.198 300.609 447.468 298.148C448.757 295.688 450.652 293.764 453.152 292.377C455.671 290.971 458.445 290.268 461.472 290.268C464.577 290.268 467.234 290.873 469.441 292.084C471.648 293.295 473.318 294.994 474.45 297.182C475.603 299.369 476.179 301.928 476.179 304.857V309.545H457.634ZM465.134 303.012C465.134 299.555 463.894 297.826 461.413 297.826C460.378 297.826 459.509 298.305 458.806 299.262C458.103 300.199 457.693 301.449 457.575 303.012H465.134ZM507.273 301.693C506.805 301.479 506.17 301.283 505.369 301.107C504.568 300.932 503.904 300.844 503.377 300.844C499.256 300.844 497.195 303.227 497.195 307.992V321H484.715V291H497.195V296.273H497.312C498.074 294.379 499.158 292.943 500.564 291.967C501.971 290.971 503.611 290.473 505.486 290.473C506.17 290.473 506.766 290.59 507.273 290.824V301.693ZM539.833 320.15C539.032 320.619 537.772 321 536.054 321.293C534.335 321.586 532.352 321.732 530.106 321.732C526.942 321.732 524.11 321.098 521.61 319.828C519.13 318.539 517.206 316.742 515.839 314.438C514.471 312.133 513.788 309.545 513.788 306.674C513.788 303.236 514.511 300.297 515.956 297.855C517.421 295.395 519.501 293.52 522.196 292.23C524.891 290.922 528.016 290.268 531.571 290.268C533.524 290.268 535.272 290.395 536.815 290.648C538.378 290.902 539.384 291.195 539.833 291.527V301.254C539.208 300.766 538.309 300.336 537.138 299.965C535.966 299.594 534.882 299.408 533.886 299.408C531.444 299.408 529.589 299.994 528.319 301.166C527.069 302.318 526.444 303.949 526.444 306.059C526.444 308.129 527.059 309.74 528.29 310.893C529.54 312.025 531.249 312.592 533.417 312.592C535.741 312.592 537.88 312.035 539.833 310.922V320.15ZM559.765 309.545C559.98 310.834 560.722 311.85 561.992 312.592C563.261 313.314 564.941 313.676 567.031 313.676C569.941 313.676 572.695 313.119 575.293 312.006V319.916C572.265 321.127 568.593 321.732 564.277 321.732C559.043 321.732 554.97 320.395 552.06 317.719C549.15 315.043 547.695 311.361 547.695 306.674C547.695 303.451 548.33 300.609 549.599 298.148C550.888 295.688 552.783 293.764 555.283 292.377C557.802 290.971 560.576 290.268 563.603 290.268C566.709 290.268 569.365 290.873 571.572 292.084C573.779 293.295 575.449 294.994 576.582 297.182C577.734 299.369 578.31 301.928 578.31 304.857V309.545H559.765ZM567.265 303.012C567.265 299.555 566.025 297.826 563.545 297.826C562.509 297.826 561.64 298.305 560.937 299.262C560.234 300.199 559.824 301.449 559.707 303.012H567.265Z" fill="#0D0C6B" fill-opacity="0.85"/>
<path d="M57.4097 429V404.493H72.6709V410.27H64.7925V413.841H72.1924V419.618H64.7925V423.224H73.2349V429H57.4097ZM92.8943 419.686L98.534 429H90.16L88.2801 425.018C88.0636 424.574 87.8187 423.964 87.5452 423.189H87.4769C87.2376 423.964 87.0838 424.443 87.0154 424.625C86.9471 424.796 86.2806 426.254 85.0159 429H76.6932L82.5037 420.182L77.035 411.5H85.4432L87.323 415.567C87.5737 416.035 87.8243 416.673 88.075 417.481H88.1434C88.4738 416.49 88.7073 415.841 88.844 415.533L90.6214 411.5H98.5682L92.8943 419.686ZM108.965 422.318C109.09 423.07 109.523 423.662 110.264 424.095C111.004 424.517 111.984 424.728 113.203 424.728C114.901 424.728 116.507 424.403 118.023 423.753V428.368C116.257 429.074 114.115 429.427 111.597 429.427C108.543 429.427 106.168 428.647 104.47 427.086C102.773 425.525 101.924 423.377 101.924 420.643C101.924 418.763 102.294 417.105 103.035 415.67C103.787 414.234 104.892 413.112 106.35 412.303C107.82 411.483 109.438 411.073 111.204 411.073C113.015 411.073 114.565 411.426 115.852 412.132C117.14 412.839 118.114 413.83 118.775 415.106C119.447 416.382 119.783 417.875 119.783 419.583V422.318H108.965ZM113.34 418.507C113.34 416.49 112.616 415.482 111.17 415.482C110.566 415.482 110.059 415.761 109.649 416.319C109.238 416.866 108.999 417.595 108.931 418.507H113.34ZM137.921 417.738C137.648 417.612 137.278 417.499 136.81 417.396C136.343 417.293 135.956 417.242 135.648 417.242C133.244 417.242 132.042 418.632 132.042 421.412V429H124.762V411.5H132.042V414.576H132.111C132.555 413.471 133.187 412.634 134.008 412.064C134.828 411.483 135.785 411.192 136.879 411.192C137.278 411.192 137.625 411.261 137.921 411.397V417.738ZM156.914 428.504C156.447 428.778 155.712 429 154.71 429.171C153.707 429.342 152.551 429.427 151.24 429.427C149.395 429.427 147.743 429.057 146.284 428.316C144.837 427.564 143.715 426.516 142.918 425.172C142.12 423.827 141.721 422.318 141.721 420.643C141.721 418.638 142.143 416.923 142.986 415.499C143.841 414.063 145.054 412.97 146.626 412.218C148.198 411.454 150.021 411.073 152.095 411.073C153.234 411.073 154.254 411.147 155.154 411.295C156.065 411.443 156.652 411.614 156.914 411.808V417.481C156.55 417.197 156.026 416.946 155.342 416.729C154.658 416.513 154.026 416.405 153.445 416.405C152.021 416.405 150.939 416.747 150.198 417.43C149.469 418.102 149.104 419.054 149.104 420.284C149.104 421.492 149.463 422.432 150.181 423.104C150.91 423.765 151.907 424.095 153.172 424.095C154.527 424.095 155.775 423.771 156.914 423.121V428.504ZM162.27 429V411.5H169.55V429H162.27ZM166.815 408.731H161.671L166.781 403.246H172.899L166.815 408.731ZM189.944 428.504C189.477 428.778 188.742 429 187.74 429.171C186.737 429.342 185.581 429.427 184.27 429.427C182.425 429.427 180.773 429.057 179.314 428.316C177.867 427.564 176.745 426.516 175.948 425.172C175.15 423.827 174.751 422.318 174.751 420.643C174.751 418.638 175.173 416.923 176.016 415.499C176.87 414.063 178.084 412.97 179.656 412.218C181.228 411.454 183.051 411.073 185.125 411.073C186.264 411.073 187.284 411.147 188.184 411.295C189.095 411.443 189.682 411.614 189.944 411.808V417.481C189.58 417.197 189.055 416.946 188.372 416.729C187.688 416.513 187.056 416.405 186.475 416.405C185.051 416.405 183.968 416.747 183.228 417.43C182.499 418.102 182.134 419.054 182.134 420.284C182.134 421.492 182.493 422.432 183.211 423.104C183.94 423.765 184.937 424.095 186.201 424.095C187.557 424.095 188.805 423.771 189.944 423.121V428.504ZM203.007 406.783C203.007 407.809 202.631 408.64 201.879 409.278C201.138 409.916 200.159 410.235 198.94 410.235C197.755 410.235 196.781 409.905 196.017 409.244C195.265 408.583 194.889 407.763 194.889 406.783C194.889 405.781 195.254 404.972 195.983 404.356C196.724 403.73 197.709 403.417 198.94 403.417C200.159 403.417 201.138 403.73 201.879 404.356C202.631 404.972 203.007 405.781 203.007 406.783ZM195.299 429V411.5H202.58V429H195.299ZM228.016 419.942C228.016 422.893 227.121 425.212 225.332 426.898C223.555 428.584 221.066 429.427 217.864 429.427C214.685 429.427 212.207 428.607 210.43 426.966C208.664 425.314 207.781 423.041 207.781 420.147C207.781 418.29 208.197 416.678 209.029 415.311C209.86 413.944 211.045 412.896 212.583 412.167C214.121 411.437 215.893 411.073 217.898 411.073C219.972 411.073 221.766 411.454 223.282 412.218C224.808 412.981 225.976 414.041 226.785 415.396C227.605 416.752 228.016 418.268 228.016 419.942ZM220.633 419.977C220.633 417.595 219.721 416.405 217.898 416.405C216.075 416.405 215.164 417.652 215.164 420.147C215.164 422.779 216.087 424.095 217.933 424.095C219.733 424.095 220.633 422.722 220.633 419.977ZM265.113 419.72C265.113 421.634 264.788 423.326 264.139 424.796C263.489 426.266 262.572 427.405 261.387 428.214C260.202 429.023 258.869 429.427 257.388 429.427C255.337 429.427 253.782 428.681 252.723 427.188H252.654V437.049H245.374V411.5H252.654V413.875H252.723C253.304 412.998 254.056 412.315 254.979 411.825C255.901 411.323 256.95 411.073 258.123 411.073C260.379 411.073 262.105 411.825 263.301 413.329C264.509 414.833 265.113 416.963 265.113 419.72ZM257.73 419.942C257.73 418.837 257.514 417.971 257.081 417.345C256.659 416.718 256.004 416.405 255.115 416.405C254.34 416.405 253.714 416.735 253.235 417.396C252.757 418.057 252.518 418.963 252.518 420.113V420.455C252.518 421.56 252.723 422.443 253.133 423.104C253.543 423.765 254.158 424.095 254.979 424.095C255.856 424.095 256.534 423.736 257.012 423.019C257.491 422.289 257.73 421.264 257.73 419.942ZM283.473 417.738C283.2 417.612 282.83 417.499 282.363 417.396C281.895 417.293 281.508 417.242 281.2 417.242C278.797 417.242 277.595 418.632 277.595 421.412V429H270.314V411.5H277.595V414.576H277.663C278.107 413.471 278.74 412.634 279.56 412.064C280.38 411.483 281.337 411.192 282.431 411.192C282.83 411.192 283.177 411.261 283.473 411.397V417.738ZM307.508 419.942C307.508 422.893 306.614 425.212 304.825 426.898C303.047 428.584 300.558 429.427 297.357 429.427C294.178 429.427 291.7 428.607 289.922 426.966C288.157 425.314 287.274 423.041 287.274 420.147C287.274 418.29 287.689 416.678 288.521 415.311C289.353 413.944 290.538 412.896 292.076 412.167C293.614 411.437 295.386 411.073 297.391 411.073C299.464 411.073 301.259 411.454 302.774 412.218C304.301 412.981 305.469 414.041 306.277 415.396C307.098 416.752 307.508 418.268 307.508 419.942ZM300.125 419.977C300.125 417.595 299.214 416.405 297.391 416.405C295.568 416.405 294.656 417.652 294.656 420.147C294.656 422.779 295.579 424.095 297.425 424.095C299.225 424.095 300.125 422.722 300.125 419.977ZM332.414 419.72C332.414 421.634 332.089 423.326 331.44 424.796C330.79 426.266 329.873 427.405 328.688 428.214C327.503 429.023 326.17 429.427 324.689 429.427C322.639 429.427 321.083 428.681 320.024 427.188H319.955V437.049H312.675V411.5H319.955V413.875H320.024C320.605 412.998 321.357 412.315 322.28 411.825C323.203 411.323 324.251 411.073 325.424 411.073C327.68 411.073 329.406 411.825 330.602 413.329C331.81 414.833 332.414 416.963 332.414 419.72ZM325.031 419.942C325.031 418.837 324.815 417.971 324.382 417.345C323.96 416.718 323.305 416.405 322.416 416.405C321.642 416.405 321.015 416.735 320.537 417.396C320.058 418.057 319.819 418.963 319.819 420.113V420.455C319.819 421.56 320.024 422.443 320.434 423.104C320.844 423.765 321.459 424.095 322.28 424.095C323.157 424.095 323.835 423.736 324.313 423.019C324.792 422.289 325.031 421.264 325.031 419.942ZM357.081 419.942C357.081 422.893 356.186 425.212 354.398 426.898C352.62 428.584 350.131 429.427 346.929 429.427C343.751 429.427 341.273 428.607 339.495 426.966C337.729 425.314 336.846 423.041 336.846 420.147C336.846 418.29 337.262 416.678 338.094 415.311C338.926 413.944 340.111 412.896 341.649 412.167C343.187 411.437 344.958 411.073 346.964 411.073C349.037 411.073 350.832 411.454 352.347 412.218C353.874 412.981 355.041 414.041 355.85 415.396C356.671 416.752 357.081 418.268 357.081 419.942ZM349.698 419.977C349.698 417.595 348.786 416.405 346.964 416.405C345.141 416.405 344.229 417.652 344.229 420.147C344.229 422.779 345.152 424.095 346.998 424.095C348.798 424.095 349.698 422.722 349.698 419.977ZM376.467 423.189C376.467 425.172 375.709 426.71 374.194 427.804C372.69 428.886 370.588 429.427 367.888 429.427C367.102 429.427 366.127 429.347 364.965 429.188C363.815 429.028 362.875 428.835 362.146 428.607V423.497C364.299 424.454 366.099 424.933 367.546 424.933C368.97 424.933 369.682 424.562 369.682 423.822C369.682 423.514 369.517 423.264 369.187 423.07C368.856 422.865 367.99 422.529 366.589 422.062C365.039 421.572 363.911 420.922 363.205 420.113C362.499 419.304 362.146 418.25 362.146 416.952C362.146 415.14 362.863 413.71 364.299 412.662C365.746 411.603 367.774 411.073 370.383 411.073C371.91 411.073 373.527 411.295 375.236 411.739V416.644C374.519 416.336 373.732 416.08 372.878 415.875C372.023 415.67 371.306 415.567 370.725 415.567C370.246 415.567 369.864 415.647 369.58 415.807C369.295 415.966 369.152 416.188 369.152 416.473C369.152 416.804 369.306 417.071 369.614 417.276C369.921 417.481 370.537 417.726 371.459 418.011C373.248 418.535 374.53 419.208 375.305 420.028C376.079 420.848 376.467 421.902 376.467 423.189ZM393.939 428.761C393.608 428.92 393.067 429.068 392.315 429.205C391.563 429.353 390.658 429.427 389.598 429.427C387.57 429.427 385.981 428.869 384.83 427.752C383.691 426.636 383.121 425.047 383.121 422.984V416.542H380.369V411.5H383.121V408.065L390.299 406.083V411.5H393.939V416.542H390.299V421.788C390.299 423.326 390.908 424.095 392.127 424.095C392.697 424.095 393.301 423.97 393.939 423.719V428.761ZM418.127 419.942C418.127 422.893 417.233 425.212 415.444 426.898C413.667 428.584 411.177 429.427 407.976 429.427C404.797 429.427 402.319 428.607 400.542 426.966C398.776 425.314 397.893 423.041 397.893 420.147C397.893 418.29 398.309 416.678 399.14 415.311C399.972 413.944 401.157 412.896 402.695 412.167C404.233 411.437 406.005 411.073 408.01 411.073C410.083 411.073 411.878 411.454 413.393 412.218C414.92 412.981 416.088 414.041 416.897 415.396C417.717 416.752 418.127 418.268 418.127 419.942ZM410.744 419.977C410.744 417.595 409.833 416.405 408.01 416.405C406.187 416.405 405.275 417.652 405.275 420.147C405.275 422.779 406.198 424.095 408.044 424.095C409.844 424.095 410.744 422.722 410.744 419.977ZM447.175 429V426.966H447.107C446.526 427.73 445.768 428.333 444.834 428.778C443.899 429.211 442.977 429.427 442.065 429.427C440.573 429.427 439.257 429.063 438.117 428.333C436.978 427.593 436.124 426.562 435.554 425.24C434.996 423.919 434.716 422.358 434.716 420.558C434.716 418.701 435.053 417.054 435.725 415.619C436.397 414.183 437.343 413.067 438.562 412.269C439.781 411.472 441.148 411.073 442.663 411.073C443.381 411.073 444.042 411.175 444.646 411.38C445.261 411.585 445.791 411.865 446.235 412.218C446.691 412.56 446.981 412.901 447.107 413.243H447.175V403.092H454.455V429H447.175ZM447.329 419.72C447.329 418.672 447.095 417.857 446.628 417.276C446.172 416.695 445.551 416.405 444.765 416.405C443.979 416.405 443.335 416.769 442.834 417.499C442.344 418.216 442.099 419.179 442.099 420.387C442.099 422.859 442.954 424.095 444.663 424.095C445.472 424.095 446.115 423.765 446.594 423.104C447.084 422.432 447.329 421.458 447.329 420.182V419.72ZM471.568 429V426.3H471.5C470.896 427.132 470.349 427.741 469.859 428.128C469.381 428.516 468.834 428.829 468.219 429.068C467.615 429.308 466.909 429.427 466.1 429.427C464.186 429.427 462.727 428.806 461.725 427.564C460.722 426.323 460.221 424.488 460.221 422.062V411.5H467.501V421.515C467.501 423.235 468.145 424.095 469.432 424.095C470.139 424.095 470.668 423.862 471.021 423.395C471.386 422.927 471.568 422.267 471.568 421.412V411.5H478.849V429H471.568ZM497.944 417.738C497.671 417.612 497.3 417.499 496.833 417.396C496.366 417.293 495.979 417.242 495.671 417.242C493.267 417.242 492.065 418.632 492.065 421.412V429H484.785V411.5H492.065V414.576H492.134C492.578 413.471 493.21 412.634 494.031 412.064C494.851 411.483 495.808 411.192 496.902 411.192C497.3 411.192 497.648 411.261 497.944 411.397V417.738ZM512.22 429V426.334H512.152C510.99 428.396 509.212 429.427 506.82 429.427C505.168 429.427 503.875 428.937 502.941 427.958C502.006 426.978 501.539 425.667 501.539 424.027C501.539 420.586 503.653 418.592 507.879 418.045L512.22 417.481C512.22 416.912 511.964 416.445 511.451 416.08C510.939 415.715 510.249 415.533 509.383 415.533C507.424 415.533 505.356 416.091 503.18 417.208V412.474C504.125 412.064 505.31 411.728 506.734 411.466C508.159 411.204 509.378 411.073 510.392 411.073C513.365 411.073 515.519 411.711 516.852 412.987C518.196 414.251 518.868 416.371 518.868 419.344V429H512.22ZM507.914 423.053C507.914 423.531 508.062 423.924 508.358 424.232C508.666 424.54 509.099 424.693 509.657 424.693C510.42 424.693 511.035 424.409 511.503 423.839C511.981 423.269 512.22 422.54 512.22 421.651V420.985L509.759 421.327C508.529 421.532 507.914 422.107 507.914 423.053ZM535.964 429V419.447C535.964 418.364 535.799 417.59 535.469 417.123C535.15 416.644 534.626 416.405 533.896 416.405C533.27 416.405 532.78 416.65 532.427 417.14C532.073 417.63 531.897 418.256 531.897 419.02V429H524.617V411.5H531.897V414.234H531.965C532.546 413.232 533.327 412.457 534.307 411.91C535.286 411.352 536.352 411.073 537.502 411.073C541.33 411.073 543.245 413.488 543.245 418.319V429H535.964ZM561.298 428.761C560.967 428.92 560.426 429.068 559.674 429.205C558.922 429.353 558.016 429.427 556.957 429.427C554.929 429.427 553.339 428.869 552.189 427.752C551.049 426.636 550.48 425.047 550.48 422.984V416.542H547.728V411.5H550.48V408.065L557.657 406.083V411.5H561.298V416.542H557.657V421.788C557.657 423.326 558.267 424.095 559.486 424.095C560.056 424.095 560.66 423.97 561.298 423.719V428.761ZM572.292 422.318C572.418 423.07 572.851 423.662 573.591 424.095C574.332 424.517 575.312 424.728 576.531 424.728C578.228 424.728 579.835 424.403 581.35 423.753V428.368C579.584 429.074 577.442 429.427 574.924 429.427C571.871 429.427 569.495 428.647 567.798 427.086C566.1 425.525 565.251 423.377 565.251 420.643C565.251 418.763 565.622 417.105 566.362 415.67C567.114 414.234 568.219 413.112 569.678 412.303C571.147 411.483 572.765 411.073 574.531 411.073C576.343 411.073 577.892 411.426 579.18 412.132C580.467 412.839 581.441 413.83 582.102 415.106C582.774 416.382 583.11 417.875 583.11 419.583V422.318H572.292ZM576.667 418.507C576.667 416.49 575.944 415.482 574.497 415.482C573.893 415.482 573.386 415.761 572.976 416.319C572.566 416.866 572.327 417.595 572.258 418.507H576.667ZM619.746 419.942C619.746 422.893 618.852 425.212 617.063 426.898C615.286 428.584 612.796 429.427 609.595 429.427C606.416 429.427 603.938 428.607 602.161 426.966C600.395 425.314 599.512 423.041 599.512 420.147C599.512 418.29 599.928 416.678 600.759 415.311C601.591 413.944 602.776 412.896 604.314 412.167C605.852 411.437 607.624 411.073 609.629 411.073C611.703 411.073 613.497 411.454 615.012 412.218C616.539 412.981 617.707 414.041 618.516 415.396C619.336 416.752 619.746 418.268 619.746 419.942ZM612.363 419.977C612.363 417.595 611.452 416.405 609.629 416.405C607.806 416.405 606.895 417.652 606.895 420.147C606.895 422.779 607.818 424.095 609.663 424.095C611.463 424.095 612.363 422.722 612.363 419.977ZM651.529 428.504C651.061 428.778 650.327 429 649.324 429.171C648.321 429.342 647.165 429.427 645.855 429.427C644.009 429.427 642.357 429.057 640.899 428.316C639.452 427.564 638.329 426.516 637.532 425.172C636.734 423.827 636.336 422.318 636.336 420.643C636.336 418.638 636.757 416.923 637.6 415.499C638.455 414.063 639.668 412.97 641.24 412.218C642.813 411.454 644.636 411.073 646.709 411.073C647.848 411.073 648.868 411.147 649.768 411.295C650.68 411.443 651.266 411.614 651.529 411.808V417.481C651.164 417.197 650.64 416.946 649.956 416.729C649.273 416.513 648.64 416.405 648.059 416.405C646.635 416.405 645.553 416.747 644.812 417.43C644.083 418.102 643.718 419.054 643.718 420.284C643.718 421.492 644.077 422.432 644.795 423.104C645.524 423.765 646.521 424.095 647.786 424.095C649.142 424.095 650.389 423.771 651.529 423.121V428.504ZM668.026 429V426.3H667.958C667.354 427.132 666.807 427.741 666.317 428.128C665.839 428.516 665.292 428.829 664.677 429.068C664.073 429.308 663.367 429.427 662.558 429.427C660.644 429.427 659.185 428.806 658.183 427.564C657.18 426.323 656.679 424.488 656.679 422.062V411.5H663.959V421.515C663.959 423.235 664.603 424.095 665.89 424.095C666.597 424.095 667.126 423.862 667.479 423.395C667.844 422.927 668.026 422.267 668.026 421.412V411.5H675.307V429H668.026ZM694.402 417.738C694.129 417.612 693.758 417.499 693.291 417.396C692.824 417.293 692.437 417.242 692.129 417.242C689.725 417.242 688.523 418.632 688.523 421.412V429H681.243V411.5H688.523V414.576H688.592C689.036 413.471 689.668 412.634 690.489 412.064C691.309 411.483 692.266 411.192 693.36 411.192C693.758 411.192 694.106 411.261 694.402 411.397V417.738ZM713.19 423.189C713.19 425.172 712.432 426.71 710.917 427.804C709.413 428.886 707.311 429.427 704.611 429.427C703.825 429.427 702.851 429.347 701.689 429.188C700.538 429.028 699.598 428.835 698.869 428.607V423.497C701.022 424.454 702.822 424.933 704.269 424.933C705.693 424.933 706.405 424.562 706.405 423.822C706.405 423.514 706.24 423.264 705.91 423.07C705.579 422.865 704.714 422.529 703.312 422.062C701.763 421.572 700.635 420.922 699.928 420.113C699.222 419.304 698.869 418.25 698.869 416.952C698.869 415.14 699.587 413.71 701.022 412.662C702.469 411.603 704.497 411.073 707.106 411.073C708.633 411.073 710.251 411.295 711.96 411.739V416.644C711.242 416.336 710.456 416.08 709.601 415.875C708.747 415.67 708.029 415.567 707.448 415.567C706.969 415.567 706.588 415.647 706.303 415.807C706.018 415.966 705.876 416.188 705.876 416.473C705.876 416.804 706.029 417.071 706.337 417.276C706.645 417.481 707.26 417.726 708.183 418.011C709.971 418.535 711.253 419.208 712.028 420.028C712.803 420.848 713.19 421.902 713.19 423.189ZM737.806 419.942C737.806 422.893 736.911 425.212 735.122 426.898C733.345 428.584 730.856 429.427 727.654 429.427C724.475 429.427 721.997 428.607 720.22 426.966C718.454 425.314 717.571 423.041 717.571 420.147C717.571 418.29 717.987 416.678 718.819 415.311C719.65 413.944 720.835 412.896 722.373 412.167C723.911 411.437 725.683 411.073 727.688 411.073C729.762 411.073 731.556 411.454 733.072 412.218C734.598 412.981 735.766 414.041 736.575 415.396C737.395 416.752 737.806 418.268 737.806 419.942ZM730.423 419.977C730.423 417.595 729.511 416.405 727.688 416.405C725.865 416.405 724.954 417.652 724.954 420.147C724.954 422.779 725.877 424.095 727.723 424.095C729.523 424.095 730.423 422.722 730.423 419.977ZM80.5151 463.439C80.5151 465.923 79.991 468.122 78.9429 470.036C77.9061 471.938 76.4193 473.408 74.4824 474.445C72.5456 475.482 70.3125 476 67.7832 476H57.4097V451.493H67.561C76.1971 451.493 80.5151 455.475 80.5151 463.439ZM72.6709 463.507C72.6709 462.311 72.4259 461.234 71.936 460.277C71.4575 459.32 70.7682 458.58 69.8682 458.056C68.9681 457.532 67.9085 457.27 66.6895 457.27H64.7925V470.224H66.8604C68.6263 470.224 70.0334 469.62 71.0815 468.412C72.1411 467.193 72.6709 465.558 72.6709 463.507ZM109.523 463.439C109.523 465.923 108.999 468.122 107.95 470.036C106.914 471.938 105.427 473.408 103.49 474.445C101.553 475.482 99.3201 476 96.7908 476H86.4173V451.493H96.5687C105.205 451.493 109.523 455.475 109.523 463.439ZM101.679 463.507C101.679 462.311 101.434 461.234 100.944 460.277C100.465 459.32 99.7758 458.58 98.8758 458.056C97.9757 457.532 96.9161 457.27 95.6971 457.27H93.8001V470.224H95.868C97.6339 470.224 99.041 469.62 100.089 468.412C101.149 467.193 101.679 465.558 101.679 463.507ZM132.446 468.583C132.446 470.212 132.008 471.631 131.13 472.838C130.265 474.046 129.046 474.946 127.473 475.539C125.901 476.131 124.01 476.427 121.799 476.427C119.236 476.427 116.889 475.994 114.758 475.128V468.412C115.784 469.164 116.917 469.774 118.159 470.241C119.401 470.696 120.558 470.924 121.629 470.924C122.437 470.924 123.064 470.782 123.508 470.497C123.953 470.201 124.175 469.774 124.175 469.215C124.175 468.817 124.061 468.469 123.833 468.173C123.617 467.865 123.281 467.58 122.825 467.318C122.38 467.056 121.549 466.697 120.33 466.242C116.388 464.726 114.417 462.277 114.417 458.893C114.417 456.523 115.317 454.632 117.117 453.219C118.917 451.795 121.332 451.083 124.363 451.083C125.217 451.083 126.004 451.117 126.721 451.186C127.439 451.254 128.088 451.339 128.67 451.442C129.262 451.544 130.088 451.738 131.148 452.023V458.261C129.085 457.133 127.057 456.569 125.064 456.569C124.243 456.569 123.582 456.723 123.081 457.03C122.58 457.338 122.329 457.759 122.329 458.295C122.329 458.808 122.529 459.235 122.927 459.577C123.338 459.907 124.186 460.34 125.474 460.875C128.014 461.901 129.809 463.023 130.857 464.242C131.917 465.461 132.446 466.908 132.446 468.583ZM160.777 476V466.447C160.777 465.364 160.611 464.59 160.281 464.123C159.962 463.644 159.438 463.405 158.709 463.405C158.082 463.405 157.592 463.65 157.239 464.14C156.886 464.63 156.709 465.256 156.709 466.02V476H149.429V458.5H156.709V461.234H156.778C157.359 460.232 158.139 459.457 159.119 458.91C160.099 458.352 161.164 458.073 162.315 458.073C166.143 458.073 168.057 460.488 168.057 465.319V476H160.777ZM183.495 476V473.334H183.427C182.265 475.396 180.487 476.427 178.095 476.427C176.443 476.427 175.15 475.937 174.215 474.958C173.281 473.978 172.814 472.667 172.814 471.027C172.814 467.586 174.927 465.592 179.154 465.045L183.495 464.481C183.495 463.912 183.239 463.445 182.726 463.08C182.213 462.715 181.524 462.533 180.658 462.533C178.699 462.533 176.631 463.091 174.455 464.208V459.474C175.4 459.064 176.585 458.728 178.009 458.466C179.433 458.204 180.653 458.073 181.667 458.073C184.64 458.073 186.793 458.711 188.126 459.987C189.471 461.251 190.143 463.371 190.143 466.344V476H183.495ZM179.188 470.053C179.188 470.531 179.337 470.924 179.633 471.232C179.94 471.54 180.373 471.693 180.932 471.693C181.695 471.693 182.31 471.409 182.777 470.839C183.256 470.269 183.495 469.54 183.495 468.651V467.985L181.034 468.327C179.804 468.532 179.188 469.107 179.188 470.053ZM237.836 462.909C237.836 464.88 237.454 466.623 236.691 468.139C235.939 469.654 234.874 470.833 233.495 471.676C232.128 472.508 230.601 472.924 228.915 472.924C227.913 472.924 227.024 472.679 226.249 472.189C225.474 471.699 224.996 471.09 224.814 470.36H224.711C224.312 471.124 223.771 471.745 223.087 472.223C222.404 472.69 221.652 472.924 220.832 472.924C219.225 472.924 217.943 472.343 216.986 471.181C216.029 470.007 215.551 468.418 215.551 466.413C215.551 464.761 215.819 463.285 216.354 461.986C216.89 460.688 217.687 459.645 218.747 458.859C219.806 458.061 220.9 457.663 222.028 457.663C223.577 457.663 224.603 458.278 225.104 459.508H225.172L225.309 458.039H230.453C230.339 459.087 230.18 460.836 229.975 463.285C229.781 465.723 229.684 467.199 229.684 467.711V468.053C229.684 468.338 229.758 468.577 229.906 468.771C230.054 468.965 230.271 469.062 230.556 469.062C231.239 469.062 231.798 468.549 232.231 467.523C232.675 466.487 232.897 464.971 232.897 462.978C232.897 461.417 232.567 460.032 231.906 458.825C231.245 457.606 230.282 456.66 229.018 455.988C227.753 455.304 226.238 454.962 224.472 454.962C222.387 454.962 220.478 455.458 218.747 456.449C217.026 457.44 215.659 458.825 214.645 460.602C213.631 462.368 213.124 464.259 213.124 466.276C213.124 469.227 214.007 471.5 215.773 473.095C217.539 474.678 220.051 475.47 223.31 475.47C224.426 475.47 225.605 475.328 226.847 475.043C228.101 474.747 229.211 474.365 230.18 473.898V477.931C228.163 478.786 225.617 479.213 222.541 479.213C219.647 479.213 217.078 478.655 214.833 477.538C212.6 476.433 210.908 474.901 209.757 472.941C208.618 470.981 208.048 468.674 208.048 466.02C208.048 463.354 208.738 460.858 210.116 458.534C211.495 456.199 213.38 454.393 215.773 453.117C218.177 451.829 220.889 451.186 223.908 451.186C226.733 451.186 229.194 451.658 231.291 452.604C233.387 453.538 234.999 454.894 236.127 456.671C237.266 458.449 237.836 460.528 237.836 462.909ZM225.002 463.781C225.002 463.04 224.831 462.459 224.489 462.038C224.158 461.616 223.72 461.405 223.173 461.405C222.455 461.405 221.851 461.889 221.361 462.858C220.872 463.826 220.627 464.966 220.627 466.276C220.627 467.176 220.769 467.888 221.054 468.412C221.35 468.925 221.766 469.181 222.301 469.181C223.11 469.181 223.76 468.68 224.25 467.677C224.751 466.663 225.002 465.364 225.002 463.781ZM251.805 457.27V461.679H259.085V467.455H251.805V476H244.422V451.493H259.786V457.27H251.805ZM265.141 476V450.092H272.421V476H265.141ZM288.099 476V473.334H288.03C286.868 475.396 285.091 476.427 282.698 476.427C281.046 476.427 279.753 475.937 278.819 474.958C277.885 473.978 277.417 472.667 277.417 471.027C277.417 467.586 279.531 465.592 283.758 465.045L288.099 464.481C288.099 463.912 287.842 463.445 287.33 463.08C286.817 462.715 286.128 462.533 285.262 462.533C283.302 462.533 281.234 463.091 279.058 464.208V459.474C280.004 459.064 281.189 458.728 282.613 458.466C284.037 458.204 285.256 458.073 286.27 458.073C289.244 458.073 291.397 458.711 292.73 459.987C294.074 461.251 294.747 463.371 294.747 466.344V476H288.099ZM283.792 470.053C283.792 470.531 283.94 470.924 284.236 471.232C284.544 471.54 284.977 471.693 285.535 471.693C286.299 471.693 286.914 471.409 287.381 470.839C287.859 470.269 288.099 469.54 288.099 468.651V467.985L285.638 468.327C284.407 468.532 283.792 469.107 283.792 470.053ZM308.202 453.783C308.202 454.809 307.826 455.64 307.075 456.278C306.334 456.916 305.354 457.235 304.135 457.235C302.95 457.235 301.976 456.905 301.213 456.244C300.461 455.583 300.085 454.763 300.085 453.783C300.085 452.781 300.449 451.972 301.179 451.356C301.919 450.73 302.905 450.417 304.135 450.417C305.354 450.417 306.334 450.73 307.075 451.356C307.826 451.972 308.202 452.781 308.202 453.783ZM300.495 476V458.5H307.775V476H300.495Z" fill="#0D0C6B" fill-opacity="0.85"/>
<path d="M73.2251 570.028C73.2251 571.802 72.8507 573.373 72.1021 574.74C71.3615 576.099 70.2995 577.149 68.916 577.889C67.5326 578.63 65.9375 579 64.1309 579H56.7212V561.495H63.9722C70.1408 561.495 73.2251 564.339 73.2251 570.028ZM67.6221 570.077C67.6221 569.222 67.4471 568.453 67.0972 567.77C66.7554 567.086 66.263 566.557 65.6201 566.183C64.9772 565.808 64.2204 565.621 63.3496 565.621H61.9946V574.874H63.4717C64.7331 574.874 65.7381 574.443 66.4868 573.58C67.2437 572.709 67.6221 571.542 67.6221 570.077ZM80.6948 574.227C80.7843 574.764 81.0936 575.187 81.6226 575.497C82.1515 575.798 82.8514 575.948 83.7222 575.948C84.9347 575.948 86.0822 575.716 87.1646 575.252V578.548C85.9032 579.053 84.3732 579.305 82.5747 579.305C80.3937 579.305 78.6969 578.748 77.4844 577.633C76.2718 576.518 75.6655 574.984 75.6655 573.031C75.6655 571.688 75.93 570.504 76.459 569.479C76.9961 568.453 77.7855 567.652 78.8271 567.074C79.877 566.488 81.0326 566.195 82.2939 566.195C83.5879 566.195 84.6947 566.447 85.6143 566.952C86.5339 567.456 87.2297 568.164 87.7017 569.076C88.1818 569.987 88.4219 571.053 88.4219 572.274V574.227H80.6948ZM83.8198 571.505C83.8198 570.064 83.3031 569.344 82.2695 569.344C81.8382 569.344 81.4761 569.544 81.1831 569.942C80.8901 570.333 80.7192 570.854 80.6704 571.505H83.8198ZM101.385 574.85C101.385 576.266 100.844 577.364 99.7612 578.146C98.687 578.919 97.1855 579.305 95.2568 579.305C94.6953 579.305 93.9995 579.248 93.1694 579.134C92.3475 579.02 91.6761 578.882 91.1553 578.719V575.069C92.6934 575.753 93.9792 576.095 95.0127 576.095C96.0299 576.095 96.5386 575.83 96.5386 575.301C96.5386 575.082 96.4206 574.903 96.1846 574.764C95.9486 574.618 95.3301 574.378 94.3291 574.044C93.2223 573.694 92.4167 573.23 91.9121 572.652C91.4076 572.075 91.1553 571.322 91.1553 570.394C91.1553 569.1 91.668 568.079 92.6934 567.33C93.7269 566.573 95.1755 566.195 97.0391 566.195C98.1296 566.195 99.2852 566.354 100.506 566.671V570.174C99.9932 569.955 99.4316 569.771 98.8213 569.625C98.2109 569.479 97.6982 569.405 97.2832 569.405C96.9414 569.405 96.6688 569.462 96.4653 569.576C96.2619 569.69 96.1602 569.849 96.1602 570.052C96.1602 570.288 96.27 570.479 96.4897 570.626C96.7095 570.772 97.1489 570.947 97.8081 571.151C99.0858 571.525 100.001 572.005 100.555 572.591C101.108 573.177 101.385 573.93 101.385 574.85ZM108.793 574.227C108.883 574.764 109.192 575.187 109.721 575.497C110.25 575.798 110.95 575.948 111.821 575.948C113.033 575.948 114.181 575.716 115.263 575.252V578.548C114.002 579.053 112.472 579.305 110.673 579.305C108.492 579.305 106.796 578.748 105.583 577.633C104.37 576.518 103.764 574.984 103.764 573.031C103.764 571.688 104.029 570.504 104.558 569.479C105.095 568.453 105.884 567.652 106.926 567.074C107.976 566.488 109.131 566.195 110.393 566.195C111.687 566.195 112.793 566.447 113.713 566.952C114.632 567.456 115.328 568.164 115.8 569.076C116.28 569.987 116.521 571.053 116.521 572.274V574.227H108.793ZM111.918 571.505C111.918 570.064 111.402 569.344 110.368 569.344C109.937 569.344 109.575 569.544 109.282 569.942C108.989 570.333 108.818 570.854 108.769 571.505H111.918ZM127.433 579V572.176C127.433 571.403 127.315 570.85 127.079 570.516C126.851 570.174 126.476 570.003 125.956 570.003C125.508 570.003 125.158 570.178 124.906 570.528C124.653 570.878 124.527 571.326 124.527 571.871V579H119.327V566.5H124.527V568.453H124.576C124.991 567.737 125.549 567.184 126.249 566.793C126.948 566.394 127.709 566.195 128.531 566.195C131.266 566.195 132.633 567.92 132.633 571.371V579H127.433ZM145.083 579H138.906L134.731 566.5H140.151L141.677 573.324C141.921 574.422 142.056 575.248 142.08 575.802H142.153C142.17 575.639 142.19 575.472 142.214 575.301C142.247 575.13 142.853 572.197 144.033 566.5H149.429L145.083 579ZM165.578 572.53C165.578 574.638 164.939 576.294 163.661 577.499C162.392 578.703 160.613 579.305 158.327 579.305C156.056 579.305 154.286 578.719 153.017 577.547C151.755 576.367 151.125 574.744 151.125 572.677C151.125 571.35 151.422 570.199 152.016 569.222C152.61 568.246 153.456 567.497 154.555 566.976C155.653 566.455 156.919 566.195 158.351 566.195C159.832 566.195 161.114 566.467 162.196 567.013C163.287 567.558 164.121 568.315 164.699 569.283C165.285 570.252 165.578 571.334 165.578 572.53ZM160.304 572.555C160.304 570.854 159.653 570.003 158.351 570.003C157.049 570.003 156.398 570.895 156.398 572.677C156.398 574.557 157.057 575.497 158.375 575.497C159.661 575.497 160.304 574.516 160.304 572.555ZM168.519 579V560.494H173.719V579H168.519ZM186.34 579H180.163L175.988 566.5H181.408L182.934 573.324C183.178 574.422 183.312 575.248 183.337 575.802H183.41C183.426 575.639 183.447 575.472 183.471 575.301C183.504 575.13 184.11 572.197 185.29 566.5H190.686L186.34 579ZM198.436 563.131C198.436 563.863 198.167 564.457 197.63 564.913C197.101 565.369 196.402 565.597 195.531 565.597C194.684 565.597 193.989 565.361 193.443 564.889C192.906 564.417 192.638 563.831 192.638 563.131C192.638 562.415 192.898 561.837 193.419 561.397C193.948 560.95 194.652 560.726 195.531 560.726C196.402 560.726 197.101 560.95 197.63 561.397C198.167 561.837 198.436 562.415 198.436 563.131ZM192.931 579V566.5H198.131V579H192.931ZM209.995 579V577.547H209.946C209.531 578.093 208.99 578.524 208.323 578.841C207.655 579.151 206.996 579.305 206.345 579.305C205.279 579.305 204.339 579.045 203.525 578.524C202.712 577.995 202.101 577.258 201.694 576.314C201.296 575.37 201.096 574.256 201.096 572.97C201.096 571.643 201.336 570.467 201.816 569.442C202.297 568.417 202.972 567.619 203.843 567.049C204.714 566.48 205.69 566.195 206.772 566.195C207.285 566.195 207.757 566.268 208.188 566.415C208.628 566.561 209.006 566.76 209.324 567.013C209.649 567.257 209.857 567.501 209.946 567.745H209.995V560.494H215.195V579H209.995ZM210.105 572.372C210.105 571.623 209.938 571.041 209.604 570.626C209.279 570.211 208.835 570.003 208.274 570.003C207.712 570.003 207.253 570.264 206.895 570.785C206.545 571.297 206.37 571.985 206.37 572.848C206.37 574.614 206.98 575.497 208.201 575.497C208.778 575.497 209.238 575.261 209.58 574.789C209.93 574.308 210.105 573.613 210.105 572.701V572.372ZM232.614 572.53C232.614 574.638 231.975 576.294 230.697 577.499C229.428 578.703 227.65 579.305 225.363 579.305C223.092 579.305 221.322 578.719 220.053 577.547C218.791 576.367 218.161 574.744 218.161 572.677C218.161 571.35 218.458 570.199 219.052 569.222C219.646 568.246 220.492 567.497 221.591 566.976C222.689 566.455 223.955 566.195 225.387 566.195C226.868 566.195 228.15 566.467 229.232 567.013C230.323 567.558 231.157 568.315 231.735 569.283C232.321 570.252 232.614 571.334 232.614 572.53ZM227.34 572.555C227.34 570.854 226.689 570.003 225.387 570.003C224.085 570.003 223.434 570.895 223.434 572.677C223.434 574.557 224.093 575.497 225.412 575.497C226.697 575.497 227.34 574.516 227.34 572.555ZM257.612 572.372C257.612 573.739 257.38 574.947 256.916 575.997C256.452 577.047 255.797 577.861 254.951 578.438C254.104 579.016 253.152 579.305 252.094 579.305C250.629 579.305 249.519 578.772 248.762 577.706H248.713V584.75H243.513V566.5H248.713V568.197H248.762C249.177 567.57 249.714 567.082 250.373 566.732C251.032 566.374 251.781 566.195 252.619 566.195C254.23 566.195 255.463 566.732 256.318 567.806C257.181 568.88 257.612 570.402 257.612 572.372ZM252.338 572.53C252.338 571.741 252.184 571.122 251.875 570.675C251.573 570.227 251.105 570.003 250.471 570.003C249.917 570.003 249.47 570.239 249.128 570.711C248.786 571.183 248.615 571.83 248.615 572.652V572.896C248.615 573.686 248.762 574.317 249.055 574.789C249.348 575.261 249.787 575.497 250.373 575.497C251 575.497 251.484 575.24 251.826 574.728C252.167 574.207 252.338 573.474 252.338 572.53ZM274.481 572.53C274.481 574.638 273.842 576.294 272.564 577.499C271.295 578.703 269.517 579.305 267.23 579.305C264.959 579.305 263.189 578.719 261.92 577.547C260.659 576.367 260.028 574.744 260.028 572.677C260.028 571.35 260.325 570.199 260.919 569.222C261.513 568.246 262.359 567.497 263.458 566.976C264.557 566.455 265.822 566.195 267.254 566.195C268.736 566.195 270.017 566.467 271.1 567.013C272.19 567.558 273.024 568.315 273.602 569.283C274.188 570.252 274.481 571.334 274.481 572.53ZM269.208 572.555C269.208 570.854 268.556 570.003 267.254 570.003C265.952 570.003 265.301 570.895 265.301 572.677C265.301 574.557 265.96 575.497 267.279 575.497C268.565 575.497 269.208 574.516 269.208 572.555ZM286.821 570.956C286.626 570.866 286.361 570.785 286.028 570.711C285.694 570.638 285.417 570.602 285.198 570.602C283.481 570.602 282.622 571.594 282.622 573.58V579H277.422V566.5H282.622V568.697H282.671C282.988 567.908 283.44 567.31 284.026 566.903C284.612 566.488 285.295 566.28 286.077 566.28C286.361 566.28 286.61 566.329 286.821 566.427V570.956ZM294.987 568.905C294.987 569.645 294.722 570.243 294.193 570.699C293.673 571.147 292.956 571.371 292.045 571.371C291.215 571.371 290.531 571.135 289.994 570.663C289.457 570.191 289.188 569.605 289.188 568.905C289.188 568.189 289.449 567.611 289.97 567.171C290.499 566.724 291.207 566.5 292.094 566.5C292.956 566.5 293.652 566.724 294.181 567.171C294.718 567.611 294.987 568.189 294.987 568.905ZM294.987 576.827C294.987 577.568 294.726 578.166 294.206 578.622C293.685 579.077 292.965 579.305 292.045 579.305C291.207 579.305 290.519 579.069 289.982 578.597C289.453 578.117 289.188 577.527 289.188 576.827C289.188 576.111 289.449 575.533 289.97 575.094C290.499 574.646 291.207 574.422 292.094 574.422C292.956 574.422 293.652 574.646 294.181 575.094C294.718 575.533 294.987 576.111 294.987 576.827ZM318.935 573.702C318.935 574.866 318.622 575.879 317.995 576.742C317.377 577.604 316.506 578.247 315.383 578.67C314.26 579.094 312.909 579.305 311.33 579.305C309.499 579.305 307.823 578.996 306.301 578.377V573.58C307.033 574.117 307.843 574.553 308.73 574.886C309.617 575.212 310.443 575.375 311.208 575.375C311.786 575.375 312.233 575.273 312.551 575.069C312.868 574.858 313.027 574.553 313.027 574.154C313.027 573.869 312.945 573.621 312.783 573.409C312.628 573.189 312.388 572.986 312.062 572.799C311.745 572.612 311.151 572.355 310.28 572.03C307.465 570.947 306.057 569.198 306.057 566.781C306.057 565.088 306.7 563.737 307.985 562.728C309.271 561.711 310.996 561.202 313.161 561.202C313.771 561.202 314.333 561.227 314.846 561.275C315.358 561.324 315.822 561.385 316.237 561.458C316.66 561.532 317.25 561.67 318.007 561.874V566.329C316.534 565.523 315.086 565.121 313.662 565.121C313.076 565.121 312.604 565.23 312.246 565.45C311.888 565.67 311.708 565.971 311.708 566.354C311.708 566.72 311.851 567.025 312.136 567.269C312.429 567.505 313.035 567.814 313.955 568.197C315.769 568.929 317.051 569.731 317.8 570.602C318.557 571.472 318.935 572.506 318.935 573.702ZM328.541 579V577.096H328.492C327.662 578.569 326.393 579.305 324.684 579.305C323.504 579.305 322.58 578.955 321.913 578.255C321.245 577.556 320.912 576.62 320.912 575.448C320.912 572.99 322.421 571.566 325.44 571.175L328.541 570.772C328.541 570.366 328.358 570.032 327.992 569.771C327.625 569.511 327.133 569.381 326.515 569.381C325.115 569.381 323.638 569.78 322.083 570.577V567.196C322.759 566.903 323.605 566.663 324.623 566.476C325.64 566.288 326.511 566.195 327.235 566.195C329.359 566.195 330.897 566.651 331.849 567.562C332.809 568.465 333.29 569.979 333.29 572.103V579H328.541ZM325.465 574.752C325.465 575.094 325.571 575.375 325.782 575.594C326.002 575.814 326.311 575.924 326.71 575.924C327.255 575.924 327.695 575.72 328.028 575.313C328.37 574.907 328.541 574.386 328.541 573.751V573.275L326.783 573.519C325.904 573.666 325.465 574.076 325.465 574.752ZM342.151 563.131C342.151 563.863 341.882 564.457 341.345 564.913C340.816 565.369 340.116 565.597 339.246 565.597C338.399 565.597 337.703 565.361 337.158 564.889C336.621 564.417 336.353 563.831 336.353 563.131C336.353 562.415 336.613 561.837 337.134 561.397C337.663 560.95 338.367 560.726 339.246 560.726C340.116 560.726 340.816 560.95 341.345 561.397C341.882 561.837 342.151 562.415 342.151 563.131ZM336.646 579V566.5H341.846V579H336.646ZM359.264 572.53C359.264 574.638 358.625 576.294 357.348 577.499C356.078 578.703 354.3 579.305 352.013 579.305C349.743 579.305 347.973 578.719 346.703 577.547C345.442 576.367 344.811 574.744 344.811 572.677C344.811 571.35 345.108 570.199 345.702 569.222C346.296 568.246 347.143 567.497 348.241 566.976C349.34 566.455 350.605 566.195 352.038 566.195C353.519 566.195 354.8 566.467 355.883 567.013C356.973 567.558 357.807 568.315 358.385 569.283C358.971 570.252 359.264 571.334 359.264 572.53ZM353.991 572.555C353.991 570.854 353.34 570.003 352.038 570.003C350.736 570.003 350.084 570.895 350.084 572.677C350.084 574.557 350.744 575.497 352.062 575.497C353.348 575.497 353.991 574.516 353.991 572.555ZM370.311 579V572.176C370.311 571.403 370.193 570.85 369.957 570.516C369.729 570.174 369.354 570.003 368.833 570.003C368.386 570.003 368.036 570.178 367.784 570.528C367.531 570.878 367.405 571.326 367.405 571.871V579H362.205V566.5H367.405V568.453H367.454C367.869 567.737 368.427 567.184 369.126 566.793C369.826 566.394 370.587 566.195 371.409 566.195C374.144 566.195 375.511 567.92 375.511 571.371V579H370.311ZM385.788 579V577.096H385.739C384.909 578.569 383.64 579.305 381.931 579.305C380.751 579.305 379.827 578.955 379.16 578.255C378.492 577.556 378.159 576.62 378.159 575.448C378.159 572.99 379.668 571.566 382.688 571.175L385.788 570.772C385.788 570.366 385.605 570.032 385.239 569.771C384.873 569.511 384.38 569.381 383.762 569.381C382.362 569.381 380.885 569.78 379.331 570.577V567.196C380.006 566.903 380.852 566.663 381.87 566.476C382.887 566.288 383.758 566.195 384.482 566.195C386.606 566.195 388.144 566.651 389.096 567.562C390.056 568.465 390.537 569.979 390.537 572.103V579H385.788ZM382.712 574.752C382.712 575.094 382.818 575.375 383.029 575.594C383.249 575.814 383.558 575.924 383.957 575.924C384.502 575.924 384.942 575.72 385.275 575.313C385.617 574.907 385.788 574.386 385.788 573.751V573.275L384.03 573.519C383.151 573.666 382.712 574.076 382.712 574.752ZM403.292 570.956C403.097 570.866 402.832 570.785 402.499 570.711C402.165 570.638 401.888 570.602 401.668 570.602C399.951 570.602 399.093 571.594 399.093 573.58V579H393.893V566.5H399.093V568.697H399.142C399.459 567.908 399.911 567.31 400.497 566.903C401.083 566.488 401.766 566.28 402.547 566.28C402.832 566.28 403.08 566.329 403.292 566.427V570.956ZM412.739 579V577.096H412.69C411.86 578.569 410.591 579.305 408.882 579.305C407.702 579.305 406.778 578.955 406.111 578.255C405.444 577.556 405.11 576.62 405.11 575.448C405.11 572.99 406.619 571.566 409.639 571.175L412.739 570.772C412.739 570.366 412.556 570.032 412.19 569.771C411.824 569.511 411.331 569.381 410.713 569.381C409.313 569.381 407.836 569.78 406.282 570.577V567.196C406.957 566.903 407.804 566.663 408.821 566.476C409.838 566.288 410.709 566.195 411.433 566.195C413.557 566.195 415.095 566.651 416.047 567.562C417.008 568.465 417.488 569.979 417.488 572.103V579H412.739ZM409.663 574.752C409.663 575.094 409.769 575.375 409.98 575.594C410.2 575.814 410.509 575.924 410.908 575.924C411.453 575.924 411.893 575.72 412.227 575.313C412.568 574.907 412.739 574.386 412.739 573.751V573.275L410.981 573.519C410.103 573.666 409.663 574.076 409.663 574.752ZM440.252 579L439.483 575.777H434.258L433.428 579H427.728L433.758 561.495H440.301L445.977 579H440.252ZM436.932 565.304H436.81C436.793 565.499 436.736 565.82 436.639 566.268C436.541 566.716 436.049 568.636 435.162 572.03H438.506L437.286 567.269C437.115 566.569 436.997 565.914 436.932 565.304ZM457.951 570.956C457.756 570.866 457.491 570.785 457.158 570.711C456.824 570.638 456.547 570.602 456.328 570.602C454.611 570.602 453.752 571.594 453.752 573.58V579H448.552V566.5H453.752V568.697H453.801C454.118 567.908 454.57 567.31 455.156 566.903C455.742 566.488 456.425 566.28 457.207 566.28C457.491 566.28 457.74 566.329 457.951 566.427V570.956ZM467.398 579V577.096H467.35C466.52 578.569 465.25 579.305 463.541 579.305C462.361 579.305 461.437 578.955 460.77 578.255C460.103 577.556 459.769 576.62 459.769 575.448C459.769 572.99 461.279 571.566 464.298 571.175L467.398 570.772C467.398 570.366 467.215 570.032 466.849 569.771C466.483 569.511 465.991 569.381 465.372 569.381C463.972 569.381 462.495 569.78 460.941 570.577V567.196C461.616 566.903 462.463 566.663 463.48 566.476C464.497 566.288 465.368 566.195 466.092 566.195C468.216 566.195 469.754 566.651 470.707 567.562C471.667 568.465 472.147 569.979 472.147 572.103V579H467.398ZM464.322 574.752C464.322 575.094 464.428 575.375 464.64 575.594C464.859 575.814 465.169 575.924 465.567 575.924C466.113 575.924 466.552 575.72 466.886 575.313C467.228 574.907 467.398 574.386 467.398 573.751V573.275L465.641 573.519C464.762 573.666 464.322 574.076 464.322 574.752ZM483.462 579V577.071H483.413C482.982 577.665 482.591 578.101 482.241 578.377C481.899 578.654 481.509 578.878 481.069 579.049C480.638 579.22 480.133 579.305 479.556 579.305C478.188 579.305 477.147 578.862 476.431 577.975C475.715 577.088 475.356 575.777 475.356 574.044V566.5H480.557V573.653C480.557 574.882 481.016 575.497 481.936 575.497C482.441 575.497 482.819 575.33 483.071 574.996C483.332 574.662 483.462 574.19 483.462 573.58V566.5H488.662V579H483.462ZM482.632 564.522H478.958L482.607 560.604H486.978L482.632 564.522ZM497.658 563.131C497.658 563.863 497.389 564.457 496.852 564.913C496.323 565.369 495.623 565.597 494.752 565.597C493.906 565.597 493.21 565.361 492.665 564.889C492.128 564.417 491.859 563.831 491.859 563.131C491.859 562.415 492.12 561.837 492.641 561.397C493.17 560.95 493.874 560.726 494.752 560.726C495.623 560.726 496.323 560.95 496.852 561.397C497.389 561.837 497.658 562.415 497.658 563.131ZM497.353 579.122C497.353 580.221 497.137 581.222 496.706 582.125C496.274 583.036 495.639 583.72 494.801 584.176C493.963 584.64 492.966 584.872 491.811 584.872C491.176 584.872 490.484 584.75 489.735 584.505V580.697C490.191 580.949 490.606 581.075 490.98 581.075C491.412 581.075 491.713 580.929 491.884 580.636C492.063 580.351 492.152 579.916 492.152 579.33V566.5H497.353V579.122ZM514.771 572.53C514.771 574.638 514.132 576.294 512.854 577.499C511.585 578.703 509.807 579.305 507.52 579.305C505.25 579.305 503.479 578.719 502.21 577.547C500.949 576.367 500.318 574.744 500.318 572.677C500.318 571.35 500.615 570.199 501.209 569.222C501.803 568.246 502.649 567.497 503.748 566.976C504.847 566.455 506.112 566.195 507.544 566.195C509.026 566.195 510.307 566.467 511.39 567.013C512.48 567.558 513.314 568.315 513.892 569.283C514.478 570.252 514.771 571.334 514.771 572.53ZM509.498 572.555C509.498 570.854 508.847 570.003 507.544 570.003C506.242 570.003 505.591 570.895 505.591 572.677C505.591 574.557 506.25 575.497 507.569 575.497C508.855 575.497 509.498 574.516 509.498 572.555Z" fill="#0D0C6B" fill-opacity="0.85"/>
<rect width="45" height="45" transform="translate(1225 667)" fill="#0D0C6B"/>
<path d="M1235.07 706.375H1225.74V680.087H1235.07V706.375ZM1230.4 676.501C1227.42 676.501 1225 674.339 1225 671.728C1225 670.475 1225.57 669.272 1226.58 668.385C1227.6 667.499 1228.97 667.001 1230.4 667.001C1231.84 667.001 1233.21 667.499 1234.22 668.385C1235.24 669.272 1235.81 670.475 1235.81 671.728C1235.81 674.339 1233.39 676.501 1230.4 676.501ZM1269.99 706.375H1260.68V693.578C1260.68 690.528 1260.61 686.617 1255.83 686.617C1250.98 686.617 1250.24 689.931 1250.24 693.358V706.375H1240.92V680.087H1249.86V683.673H1250C1251.24 681.607 1254.28 679.428 1258.82 679.428C1268.26 679.428 1270 684.868 1270 691.934V706.375H1269.99Z" fill="#EBEBEB"/>
</g>
<defs>
<clipPath id="clip0_43_3">
<rect width="1280" height="720" fill="white"/>
</clipPath>
<clipPath id="clip1_43_3">
<rect width="1280" height="104" fill="white"/>
</clipPath>
<clipPath id="clip2_43_3">
<rect width="1280" height="98" fill="white" transform="translate(0 622)"/>
</clipPath>
</defs>
</svg>
