<svg width="200" height="200" viewBox="0 0 200 200" fill="none" xmlns="http://www.w3.org/2000/svg">
<g clip-path="url(#clip0_85_2)">
<rect width="200" height="200" fill="white"/>
<rect width="200" height="200" fill="#EBEBEB"/>
<path d="M180.333 18.6667C175.731 18.6667 172 14.9358 172 10.3333C172 5.73083 175.731 2 180.333 2C184.936 2 188.667 5.73083 188.667 10.3333C188.667 14.9358 184.936 18.6667 180.333 18.6667ZM180.333 17C182.101 17 183.797 16.2976 185.047 15.0474C186.298 13.7971 187 12.1014 187 10.3333C187 8.56522 186.298 6.86953 185.047 5.61929C183.797 4.36905 182.101 3.66667 180.333 3.66667C178.565 3.66667 176.87 4.36905 175.619 5.61929C174.369 6.86953 173.667 8.56522 173.667 10.3333C173.667 12.1014 174.369 13.7971 175.619 15.0474C176.87 16.2976 178.565 17 180.333 17ZM179.5 6.16667H181.167V7.83333H179.5V6.16667ZM179.5 9.5H181.167V14.5H179.5V9.5Z" fill="#0D0C6B"/>
<g filter="url(#filter0_i_85_2)">
<rect x="11" y="28" width="178" height="162" rx="15" fill="#B8B8B8" fill-opacity="0.75"/>
</g>
</g>
<defs>
<filter id="filter0_i_85_2" x="6" y="28" width="183" height="162" filterUnits="userSpaceOnUse" color-interpolation-filters="sRGB">
<feFlood flood-opacity="0" result="BackgroundImageFix"/>
<feBlend mode="normal" in="SourceGraphic" in2="BackgroundImageFix" result="shape"/>
<feColorMatrix in="SourceAlpha" type="matrix" values="0 0 0 0 0 0 0 0 0 0 0 0 0 0 0 0 0 0 127 0" result="hardAlpha"/>
<feMorphology radius="1" operator="erode" in="SourceAlpha" result="effect1_innerShadow_85_2"/>
<feOffset dx="-5"/>
<feGaussianBlur stdDeviation="2.5"/>
<feComposite in2="hardAlpha" operator="arithmetic" k2="-1" k3="1"/>
<feColorMatrix type="matrix" values="0 0 0 0 0.501961 0 0 0 0 0.501961 0 0 0 0 0.501961 0 0 0 0.91 0"/>
<feBlend mode="normal" in2="shape" result="effect1_innerShadow_85_2"/>
</filter>
<clipPath id="clip0_85_2">
<rect width="200" height="200" fill="white"/>
</clipPath>
</defs>
</svg>
